<svg width="54" height="54" viewBox="0 0 54 54" fill="none" xmlns="http://www.w3.org/2000/svg">
<g clip-path="url(#clip0_803_236)">
<rect width="54" height="54" rx="12" fill="#29A19C"/>
<g clip-path="url(#clip1_803_236)">
<path d="M39.25 11.25H31.935C31.2 9.22 29.275 7.75 27 7.75C24.725 7.75 22.8 9.22 22.065 11.25H14.75C12.825 11.25 11.25 12.825 11.25 14.75V39.25C11.25 41.175 12.825 42.75 14.75 42.75H39.25C41.175 42.75 42.75 41.175 42.75 39.25V14.75C42.75 12.825 41.175 11.25 39.25 11.25ZM27 11.25C27.9625 11.25 28.75 12.0375 28.75 13C28.75 13.9625 27.9625 14.75 27 14.75C26.0375 14.75 25.25 13.9625 25.25 13C25.25 12.0375 26.0375 11.25 27 11.25ZM30.5 35.75H18.25V32.25H30.5V35.75ZM35.75 28.75H18.25V25.25H35.75V28.75ZM35.75 21.75H18.25V18.25H35.75V21.75Z" fill="#F9F9F9"/>
</g>
</g>
<defs>
<clipPath id="clip0_803_236">
<rect width="54" height="54" fill="white"/>
</clipPath>
<clipPath id="clip1_803_236">
<rect width="42" height="42" fill="white" transform="translate(6 6)"/>
</clipPath>
</defs>
</svg>
